<?xml version="1.0" encoding="iso-8859-1"?>
<!-- Generator: Adobe Illustrator 16.0.0, SVG Export Plug-In . SVG Version: 6.00 Build 0)  -->
<!DOCTYPE svg PUBLIC "-//W3C//DTD SVG 1.1//EN" "http://www.w3.org/Graphics/SVG/1.1/DTD/svg11.dtd">
<svg version="1.1" id="Capa_1" xmlns="http://www.w3.org/2000/svg" xmlns:xlink="http://www.w3.org/1999/xlink" x="0px" y="0px"
	 width="599.836px" height="599.836px" viewBox="0 0 599.836 599.836" style="enable-background:new 0 0 599.836 599.836;"
	 xml:space="preserve">
<g>
	<g>
		<g>
			<path d="M62.551,442.334h116.553c-1.993,6.938-2.677,14.202-1.981,21.416c1.084,11.226,5.442,21.832,12.602,30.673l68.927,85.093
				c0.915,1.13,2.366,2.861,4.341,4.775c10.007,9.702,23.197,15.045,37.143,15.045c14.022,0,27.264-5.393,37.288-15.187
				c1.813-1.771,3.158-3.362,4.014-4.405l69.701-85.072c7.231-8.826,11.651-19.438,12.783-30.69
				c0.733-7.29,0.053-14.635-1.962-21.647h115.326c32.059,0,58.14-26.082,58.14-58.141V58.64c0-32.059-26.081-58.14-58.14-58.14
				H62.551c-32.059,0-58.14,26.082-58.14,58.14v325.553C4.411,416.252,30.492,442.334,62.551,442.334z M344.425,443.423h22.166
				c12.448,0,19.299,14.47,11.41,24.099l-69.693,85.062c-0.261,0.318-0.526,0.635-0.821,0.923c-2.039,1.992-4.695,2.989-7.351,2.989
				c-2.643,0-5.285-0.986-7.321-2.961c-0.315-0.306-0.597-0.644-0.874-0.985l-68.927-85.093
				c-7.812-9.643-0.949-24.034,11.461-24.034h21.372c1.969,0,3.848-0.39,5.565-1.089c5.387-2.197,9.185-7.484,9.185-13.661v-29.18
				v-67.932c0-8.146,6.604-14.75,14.75-14.75h29.576c8.146,0,14.751,6.604,14.751,14.75v67.932v29.18
				c0,6.177,3.798,11.464,9.185,13.661C340.578,443.033,342.455,443.423,344.425,443.423z M552.586,384.193
				c0,8.45-6.851,15.3-15.3,15.3H372.514v-67.932c0-31.755-25.835-57.59-57.59-57.59h-29.577c-31.755,0-57.59,25.835-57.59,57.59
				v67.932H62.551c-8.45,0-15.3-6.85-15.3-15.3V179.252h505.336V384.193L552.586,384.193z M47.25,58.64c0-8.45,6.85-15.3,15.3-15.3
				h474.736c8.45,0,15.3,6.85,15.3,15.3v77.771H47.25V58.64z"/>
			<path d="M300.136,599.836c-14.076,0-27.391-5.394-37.491-15.186c-1.993-1.933-3.455-3.677-4.381-4.82l-68.927-85.093
				c-7.222-8.917-11.618-19.616-12.711-30.939c-0.681-7.055-0.069-14.104,1.818-20.964H62.551c-32.334,0-58.64-26.306-58.64-58.641
				V58.64C3.911,26.306,30.216,0,62.551,0h474.735c32.334,0,58.64,26.306,58.64,58.64v325.553c0,32.335-26.306,58.641-58.64,58.641
				H422.62c1.911,6.942,2.517,14.07,1.799,21.197c-1.142,11.351-5.6,22.056-12.894,30.957l-69.701,85.072
				c-0.866,1.057-2.229,2.666-4.051,4.446C327.656,594.392,314.29,599.836,300.136,599.836z M62.551,1
				C30.768,1,4.911,26.857,4.911,58.64v325.553c0,31.783,25.857,57.641,57.64,57.641h117.217l-0.184,0.638
				c-1.993,6.939-2.654,14.082-1.964,21.23c1.075,11.127,5.395,21.642,12.493,30.406l68.927,85.093c0.91,1.123,2.346,2.836,4.3,4.73
				c9.913,9.611,22.98,14.904,36.795,14.904c13.891,0,27.009-5.343,36.938-15.044c1.788-1.746,3.126-3.327,3.977-4.365
				l69.701-85.071c7.168-8.75,11.551-19.271,12.673-30.424c0.726-7.219,0.071-14.439-1.945-21.46l-0.184-0.638h115.99
				c31.782,0,57.64-25.857,57.64-57.641V58.64c0-31.783-25.857-57.64-57.64-57.64H62.551z M300.136,556.996
				c-2.883,0-5.607-1.102-7.669-3.102c-0.349-0.339-0.655-0.71-0.914-1.03l-68.927-85.093c-3.736-4.611-4.47-10.805-1.915-16.162
				c2.555-5.358,7.829-8.687,13.765-8.687h21.372c1.853,0,3.662-0.354,5.376-1.052c5.39-2.199,8.874-7.38,8.874-13.198v-97.111
				c0-8.409,6.841-15.25,15.25-15.25h29.576c8.409,0,15.251,6.841,15.251,15.25v97.111c0,5.818,3.483,10.999,8.873,13.198
				c1.715,0.698,3.524,1.052,5.377,1.052h22.166c5.954,0,11.235,3.343,13.783,8.725c2.548,5.381,1.787,11.585-1.986,16.19
				L308.695,552.9c-0.259,0.316-0.538,0.651-0.858,0.964C305.769,555.884,303.035,556.996,300.136,556.996z M234.476,443.923
				c-5.547,0-10.475,3.11-12.863,8.116c-2.387,5.007-1.701,10.794,1.79,15.104l68.927,85.093c0.241,0.298,0.524,0.641,0.833,0.941
				c1.875,1.818,4.351,2.819,6.973,2.819c2.636,0,5.122-1.011,7.001-2.847c0.284-0.277,0.543-0.588,0.784-0.882l69.693-85.062
				c3.525-4.304,4.237-10.102,1.856-15.13c-2.382-5.028-7.316-8.152-12.88-8.152h-22.166c-1.983,0-3.919-0.379-5.754-1.126
				c-5.769-2.353-9.496-7.896-9.496-14.124v-97.111c0-7.857-6.393-14.25-14.251-14.25h-29.576c-7.858,0-14.25,6.393-14.25,14.25
				v97.111c0,6.227-3.728,11.771-9.496,14.124c-1.835,0.747-3.771,1.126-5.754,1.126H234.476z M537.287,399.993H372.014v-68.432
				c0-31.479-25.61-57.09-57.09-57.09h-29.577c-31.48,0-57.09,25.611-57.09,57.09v68.432H62.551c-8.712,0-15.8-7.088-15.8-15.8
				V178.752h506.336v205.441C553.086,392.905,545.999,399.993,537.287,399.993z M373.014,398.993h164.272
				c8.161,0,14.8-6.639,14.8-14.8V179.752H47.75v204.441c0,8.161,6.639,14.8,14.8,14.8h164.706v-67.432
				c0-32.031,26.059-58.09,58.09-58.09h29.577c32.031,0,58.09,26.059,58.09,58.09V398.993z M553.086,136.911H46.75V58.64
				c0-8.712,7.088-15.8,15.8-15.8h474.736c8.712,0,15.8,7.088,15.8,15.8V136.911z M47.75,135.911h504.336V58.64
				c0-8.161-6.639-14.8-14.8-14.8H62.551c-8.161,0-14.8,6.639-14.8,14.8V135.911z"/>
		</g>
		<g>
			<circle cx="507.999" cy="89.822" r="21.216"/>
			<path d="M507.999,111.538c-11.975,0-21.716-9.742-21.716-21.716c0-11.974,9.741-21.716,21.716-21.716s21.716,9.742,21.716,21.716
				C529.714,101.796,519.973,111.538,507.999,111.538z M507.999,69.105c-11.423,0-20.716,9.293-20.716,20.716
				s9.293,20.716,20.716,20.716s20.716-9.293,20.716-20.716S519.421,69.105,507.999,69.105z"/>
		</g>
		<g>
			<circle cx="444.758" cy="89.822" r="21.216"/>
			<path d="M444.758,111.538c-11.975,0-21.716-9.742-21.716-21.716c0-11.974,9.741-21.716,21.716-21.716s21.717,9.742,21.717,21.716
				C466.475,101.796,456.733,111.538,444.758,111.538z M444.758,69.105c-11.423,0-20.716,9.293-20.716,20.716
				s9.293,20.716,20.716,20.716s20.717-9.293,20.717-20.716S456.181,69.105,444.758,69.105z"/>
		</g>
		<g>
			<circle cx="381.518" cy="89.822" r="21.216"/>
			<path d="M381.518,111.538c-11.975,0-21.716-9.742-21.716-21.716c0-11.974,9.741-21.716,21.716-21.716s21.717,9.742,21.717,21.716
				C403.235,101.796,393.493,111.538,381.518,111.538z M381.518,69.105c-11.423,0-20.716,9.293-20.716,20.716
				s9.293,20.716,20.716,20.716s20.717-9.293,20.717-20.716S392.941,69.105,381.518,69.105z"/>
		</g>
	</g>
</g>
<g>
</g>
<g>
</g>
<g>
</g>
<g>
</g>
<g>
</g>
<g>
</g>
<g>
</g>
<g>
</g>
<g>
</g>
<g>
</g>
<g>
</g>
<g>
</g>
<g>
</g>
<g>
</g>
<g>
</g>
</svg>
